<svg width="52" height="53" viewBox="0 0 52 53" fill="none" xmlns="http://www.w3.org/2000/svg">
<g id="Administration">
<rect y="0.5" width="52" height="52" rx="8" fill="#26CC6E"/>
<g id="Group 1171275137">
<path id="Vector" d="M42.1119 16.6668L43.5486 13.7934L38.7063 8.95116L35.8329 10.3879C34.1554 9.36042 32.3462 8.6107 30.4389 8.15109L29.4238 5.02173H22.5758L21.5606 8.15109C19.6533 8.61078 17.8441 9.36042 16.1666 10.3879L13.2932 8.95116L8.45092 13.7934L9.88761 16.6668C8.86018 18.3444 8.11045 20.1535 7.65085 22.0609L4.52148 23.076V29.9239L7.65085 30.9391C8.11054 32.8465 8.86018 34.6556 9.88761 36.3332L8.45092 39.2066L13.2932 44.0488L16.1666 42.6121C17.8441 43.6396 19.6533 44.3893 21.5606 44.8489L22.5758 47.9782H29.4238L30.439 44.8489C32.3463 44.3892 34.1554 43.6396 35.833 42.6121L38.7064 44.0488L43.5487 39.2066L42.112 36.3332C43.1394 34.6556 43.8891 32.8465 44.3487 30.9391L47.4781 29.9239V23.076L44.3487 22.0608C43.889 20.1534 43.1393 18.3444 42.1119 16.6668ZM25.9997 40.3434C18.3665 40.3434 12.1563 34.1332 12.1563 26.5C12.1563 18.8667 18.3665 12.6566 25.9997 12.6566C33.633 12.6566 39.8432 18.8667 39.8432 26.5C39.8432 34.1332 33.633 40.3434 25.9997 40.3434Z" fill="white"/>
<path id="Vector_2" d="M25.9999 17.6906C21.1428 17.6906 17.1904 21.643 17.1904 26.5C17.1904 31.357 21.1428 35.3094 25.9999 35.3094C30.8569 35.3094 34.8093 31.357 34.8093 26.5C34.8093 21.643 30.8569 17.6906 25.9999 17.6906ZM24.7414 30.7966L21.3346 27.3898L23.1142 25.6102L24.7414 27.2374L28.8856 23.0932L30.6652 24.8728L24.7414 30.7966Z" fill="white"/>
</g>
</g>
</svg>
