<svg width="52" height="53" viewBox="0 0 52 53" fill="none" xmlns="http://www.w3.org/2000/svg">
<g id="shapes">
<rect y="0.5" width="52" height="52" rx="8" fill="#9739C8"/>
<g id="Group 1171275099">
<path id="Vector" d="M47.1151 14.1103V22.2296C47.1151 25.8086 44.4785 28.7784 41.0233 29.2638C40.4712 29.3399 40.0143 28.8831 40.0143 28.3215V27.817C40.0143 20.2593 33.8844 14.1103 26.3077 14.1103H25.8032C25.2416 14.1103 24.7847 13.6534 24.8609 13.1014C25.3558 9.65567 28.3161 7.00952 31.895 7.00952H40.0048C43.9455 7.00952 47.1151 10.1982 47.1151 14.1103Z" fill="white" fill-opacity="0.5"/>
<path id="Vector_2" opacity="0.5" d="M6.5 7.94233V17.6702C6.5 18.5079 7.50896 18.9267 8.10863 18.3365L17.8365 8.60863C18.4267 8.01848 18.0079 7 17.1702 7H7.44233C6.92833 7.00952 6.5 7.42833 6.5 7.94233Z" fill="white"/>
<path id="Vector_3" opacity="0.5" d="M47.1157 46.6827V36.9548C47.1157 36.1171 46.1067 35.6983 45.507 36.2885L35.7886 46.0164C35.1985 46.6065 35.6173 47.625 36.4549 47.625H46.1829C46.6969 47.6155 47.1157 47.1967 47.1157 46.6827Z" fill="white"/>
<path id="Vector_4" d="M26.2985 17.1562H24.7755H16.6562C11.0498 17.1562 6.5 21.7061 6.5 27.3125V37.4688C6.5 43.0752 11.0498 47.625 16.6562 47.625H26.8125C32.4189 47.625 36.9687 43.0752 36.9687 37.4688V29.3495V27.8265C36.9592 21.9345 32.1905 17.1562 26.2985 17.1562ZM15.3237 40.4576C15.3237 40.6765 15.1428 40.8669 14.9144 40.8669H11.9827C11.7637 40.8669 11.5734 40.686 11.5734 40.4576V37.1642C11.5734 36.9452 11.7542 36.7549 11.9827 36.7549H14.9144C15.1333 36.7549 15.3237 36.9357 15.3237 37.1642V40.4576ZM20.6921 40.4576C20.6921 40.6765 20.5112 40.8669 20.2828 40.8669H17.3511C17.1322 40.8669 16.9418 40.686 16.9418 40.4576V33.728C16.9418 33.4995 17.1227 33.3187 17.3511 33.3187H20.2828C20.5017 33.3187 20.6921 33.4995 20.6921 33.728V40.4576ZM26.0605 40.4576C26.0605 40.6765 25.8797 40.8669 25.6512 40.8669H22.7195C22.4911 40.8669 22.3102 40.686 22.3102 40.4576V29.8063C22.3102 29.5874 22.4911 29.3971 22.7195 29.3971H25.6512C25.8797 29.3971 26.0605 29.5779 26.0605 29.8063V40.4576ZM31.429 40.4576C31.429 40.6765 31.2481 40.8669 31.0197 40.8669H28.088C27.8691 40.8669 27.6787 40.686 27.6787 40.4576V25.1994C27.6787 24.9805 27.8595 24.7901 28.088 24.7901H31.0197C31.2386 24.7901 31.429 24.9709 31.429 25.1994V40.4576Z" fill="white"/>
</g>
</g>
</svg>
