<svg width="80" height="81" viewBox="0 0 80 81" fill="none" xmlns="http://www.w3.org/2000/svg">
<g clip-path="url(#clip0_3612_46743)">
<path d="M40.0002 33.4691H44.6878C45.9832 33.4691 47.0315 32.4208 47.0315 31.1253C47.0315 29.8298 45.9832 28.7815 44.6878 28.7815H42.344V26.4378C42.344 25.1423 41.2957 24.094 40.0002 24.094C38.7048 24.094 37.6565 25.1423 37.6565 26.4378V29.2133C34.9343 30.1839 32.9689 32.7612 32.9689 35.8128V40.5004C32.9689 41.7958 34.0172 42.8441 35.3127 42.8441H42.344V45.1879C42.344 46.481 41.2912 47.5316 40.0002 47.5316H35.3127C34.0172 47.5316 32.9689 48.5799 32.9689 49.8754C32.9689 51.1709 34.0172 52.2192 35.3127 52.2192H37.6565V54.5629C37.6565 55.8584 38.7048 56.9067 40.0002 56.9067C41.2957 56.9067 42.344 55.8584 42.344 54.5629V51.7875C45.0662 50.8168 47.0315 48.2395 47.0315 45.1879V40.5004C47.0315 39.2049 45.9832 38.1566 44.6878 38.1566H37.6565V35.8128C37.6565 34.5195 38.7093 33.4691 40.0002 33.4691ZM65.3376 10.7272C65.2963 10.0566 64.9668 9.43627 64.4358 9.02205C57.3953 3.54936 48.945 0.500122 40.0002 0.500122C18.032 0.500122 0 18.5299 0 40.5004C0 60.5597 15.1435 78.0034 35.0243 80.4823C35.7285 80.5662 36.3836 80.3392 36.8644 79.9146C37.368 79.4684 37.6563 78.8298 37.6563 78.1568V63.4664C37.6563 62.3517 36.8735 61.3928 35.7794 61.1708C26.0017 59.1772 18.9064 50.4842 18.9064 40.5004C18.9064 28.8686 28.3684 19.4065 40.0002 19.4065C44.1521 19.4065 48.1714 20.6173 51.623 22.906C52.5476 23.5264 53.7836 23.4028 54.5755 22.6107L64.6555 12.5307C65.1316 12.0547 65.3788 11.3978 65.3376 10.7272Z" fill="url(#paint0_linear_3612_46743)"/>
<path d="M77.6565 42.8443H62.9661C61.8537 42.8443 60.8925 43.6293 60.6681 44.7212C58.9788 53.0228 52.5199 59.4796 44.2205 61.171C43.1266 61.393 42.3438 62.3519 42.3438 63.4666V78.157C42.3438 78.83 42.6322 79.4686 43.1356 79.9148C43.6166 80.3395 44.2724 80.5663 44.9758 80.4825C63.0714 78.228 77.725 63.5697 79.9818 45.4789C80.0641 44.8106 79.8582 44.1399 79.4141 43.6363C78.9701 43.1327 78.3294 42.8443 77.6565 42.8443ZM60.6728 36.2799C60.8971 37.3716 61.8584 38.1568 62.9707 38.1568H77.6565C78.3294 38.1568 78.9702 37.8683 79.4143 37.3649C79.8583 36.8591 80.0643 36.1885 79.9819 35.5224C79.0985 28.4408 75.8614 21.7139 71.4714 16.0651C71.0594 15.5363 70.4369 15.2068 69.7686 15.1655C69.1094 15.1404 68.4411 15.3715 67.965 15.8476L57.8987 25.9184C57.1113 26.7058 56.9877 27.9417 57.6012 28.8688C59.0981 31.1324 60.1326 33.6249 60.6728 36.2799Z" fill="url(#paint1_linear_3612_46743)"/>
</g>
<defs>
<linearGradient id="paint0_linear_3612_46743" x1="32.671" y1="80.4995" x2="32.671" y2="0.500122" gradientUnits="userSpaceOnUse">
<stop stop-color="#0B9ABD"/>
<stop offset="1" stop-color="#64F8DD"/>
</linearGradient>
<linearGradient id="paint1_linear_3612_46743" x1="61.1717" y1="80.4997" x2="61.1717" y2="15.1635" gradientUnits="userSpaceOnUse">
<stop stop-color="#C3FFF4"/>
<stop offset="0.9973" stop-color="#F0FBFF"/>
</linearGradient>
<clipPath id="clip0_3612_46743">
<rect width="80" height="80" fill="white" transform="translate(0 0.5)"/>
</clipPath>
</defs>
</svg>
