<svg width="80" height="81" viewBox="0 0 80 81" fill="none" xmlns="http://www.w3.org/2000/svg">
<g clip-path="url(#clip0_3612_46766)">
<path d="M66.7188 42.6875H13.2812C5.95797 42.6875 0 36.7295 0 29.4062V13.7812C0 6.45797 5.95797 0.5 13.2812 0.5H66.7188C74.042 0.5 80 6.45797 80 13.7812V29.4062C80 36.7295 74.042 42.6875 66.7188 42.6875Z" fill="url(#paint0_linear_3612_46766)"/>
<path d="M15.7812 16.125V19.102H19.2673C20.5617 19.102 21.6111 20.1514 21.6111 21.4458C21.6111 22.7402 20.5617 23.7895 19.2673 23.7895H15.7812V29.4062C15.7812 30.7006 14.7319 31.75 13.4375 31.75C12.1431 31.75 11.0938 30.7006 11.0938 29.4062V13.7812C11.0938 12.4869 12.1431 11.4375 13.4375 11.4375H19.7703C21.0647 11.4375 22.1141 12.4869 22.1141 13.7812C22.1141 15.0756 21.0647 16.125 19.7703 16.125H15.7812ZM51.4275 16.125C52.7219 16.125 53.7712 15.0756 53.7712 13.7812C53.7712 12.4869 52.7219 11.4375 51.4275 11.4375H44.8438C43.5494 11.4375 42.5 12.4869 42.5 13.7812V29.4062C42.5 30.7006 43.5494 31.75 44.8438 31.75H51.4275C52.7219 31.75 53.7712 30.7006 53.7712 29.4062C53.7712 28.1119 52.7219 27.0625 51.4275 27.0625H47.1875V23.9375H50.942C52.2364 23.9375 53.2858 22.8881 53.2858 21.5938C53.2858 20.2994 52.2364 19.25 50.942 19.25H47.1875V16.125H51.4275ZM66.5625 27.0625H62.3225V23.9375H66.077C67.3714 23.9375 68.4208 22.8881 68.4208 21.5938C68.4208 20.2994 67.3714 19.25 66.077 19.25H62.3225V16.125H66.5625C67.8569 16.125 68.9062 15.0756 68.9062 13.7812C68.9062 12.4869 67.8569 11.4375 66.5625 11.4375H59.9787C58.6844 11.4375 57.635 12.4869 57.635 13.7812V29.4062C57.635 30.7006 58.6844 31.75 59.9787 31.75H66.5625C67.8569 31.75 68.9062 30.7006 68.9062 29.4062C68.9062 28.1119 67.8569 27.0625 66.5625 27.0625ZM34.592 23.7858L38.1758 27.8577C39.0309 28.8294 38.9366 30.3103 37.9648 31.1656C36.9931 32.0208 35.5122 31.9264 34.657 30.9547L30.3125 26.0183V29.4062C30.3125 30.7006 29.2631 31.75 27.9688 31.75C26.6744 31.75 25.625 30.7006 25.625 29.4062V13.7812C25.625 12.4869 26.6744 11.4375 27.9688 11.4375H32.1259C35.7841 11.4375 38.7602 14.3106 38.7602 17.842C38.7602 20.5323 37.0322 22.8389 34.592 23.7858ZM34.0727 17.842C34.0727 16.9112 33.1811 16.125 32.1259 16.125H30.3125V19.5647C31.0022 19.5616 31.6892 19.5591 32.1259 19.5591C33.1812 19.5591 34.0727 18.7727 34.0727 17.842ZM64.2188 70.3437V62.5312C64.2188 56.9222 59.6716 52.375 54.0625 52.375H44.6875V39.9531C44.6875 37.1486 42.4139 34.875 39.6094 34.875C36.8048 34.875 34.5312 37.1486 34.5312 39.9531V63.4208L29.3703 58.905C25.9 55.8684 20.4688 58.333 20.4688 62.9442C20.4688 64.2587 20.9511 65.5275 21.8245 66.51L30.7639 76.5667C32.9856 79.0664 36.1781 80.5 39.5225 80.5H54.0625C59.6716 80.5 64.2188 75.9528 64.2188 70.3437Z" fill="url(#paint1_linear_3612_46766)"/>
</g>
<defs>
<linearGradient id="paint0_linear_3612_46766" x1="40" y1="42.6875" x2="40" y2="0.5" gradientUnits="userSpaceOnUse">
<stop stop-color="#0799BC"/>
<stop offset="1" stop-color="#39E4EF"/>
</linearGradient>
<linearGradient id="paint1_linear_3612_46766" x1="40" y1="80.5" x2="40" y2="11.4375" gradientUnits="userSpaceOnUse">
<stop stop-color="#1CCFC4"/>
<stop offset="1" stop-color="white"/>
</linearGradient>
<clipPath id="clip0_3612_46766">
<rect width="80" height="80" fill="white" transform="translate(0 0.5)"/>
</clipPath>
</defs>
</svg>
