<svg width="80" height="81" viewBox="0 0 80 81" fill="none" xmlns="http://www.w3.org/2000/svg">
<g clip-path="url(#clip0_3612_46718)">
<path d="M40.0002 72.4994C38.7058 72.4994 37.6564 71.45 37.6564 70.1556L37.6562 49.7195C37.6562 48.4251 38.7056 47.3757 40 47.3757C41.2944 47.3757 42.3438 48.4251 42.3438 49.7195L42.344 70.1556C42.344 71.45 41.2946 72.4994 40.0002 72.4994Z" fill="url(#paint0_linear_3612_46718)"/>
<path d="M40.0005 52.0633C54.2165 52.0633 65.7821 40.4977 65.7821 26.2817C65.7821 12.0656 54.2165 0.5 40.0005 0.5C25.7845 0.5 14.2188 12.0656 14.2188 26.2817C14.2188 40.4977 25.7845 52.0633 40.0005 52.0633ZM71.198 50.2255C70.6811 49.6223 69.895 49.3219 69.1062 49.4279C68.3804 49.5255 51.2402 51.8975 43.0415 58.9248C41.7571 60.0258 40.7644 61.1734 40.0003 62.3256C39.2362 61.1733 38.2436 60.0258 36.9592 58.9248C28.7605 51.8974 11.6202 49.5255 10.8944 49.4279C10.1061 49.3219 9.31968 49.6225 8.80264 50.2255C8.2856 50.8286 8.10919 51.6527 8.33435 52.4146C8.5417 53.1168 13.5072 69.6928 21.706 76.7201C25.1231 79.649 28.5525 80.4998 31.3842 80.4998C32.4763 80.4998 33.4799 80.3731 34.359 80.1905C37.3817 79.5619 39.4767 78.1856 40.0002 77.8156C40.5236 78.1856 42.6186 79.5619 45.6413 80.1905C46.5206 80.3733 47.5237 80.4998 48.6161 80.4998C51.4477 80.4998 54.8776 79.6486 58.2944 76.7201C66.4931 69.6928 71.4586 53.1168 71.666 52.4146C71.8914 51.6527 71.715 50.8288 71.198 50.2255Z" fill="url(#paint1_linear_3612_46718)"/>
<path d="M46.9307 26.1227C45.6307 25.1479 44.0516 24.4764 42.3439 24.155V17.2715C44.158 17.8577 45.469 19.0809 45.469 20.4222C45.469 21.7166 46.5184 22.766 47.8128 22.766C49.1072 22.766 50.1566 21.7166 50.1566 20.4222C50.1566 18.1349 48.9809 15.9415 46.9307 14.4038C45.6307 13.4289 44.0516 12.7575 42.3439 12.4361V12.2189C42.3439 10.9245 41.2946 9.87512 40.0002 9.87512C38.7058 9.87512 37.6564 10.9245 37.6564 12.2189V12.4363C35.9487 12.7577 34.3694 13.4291 33.0696 14.4039C31.0196 15.9415 29.8438 18.1351 29.8438 20.4223C29.8438 22.7095 31.0194 24.903 33.0696 26.4407C34.3696 27.4156 35.9487 28.087 37.6564 28.4084V35.2919C35.8423 34.7057 34.5313 33.4825 34.5313 32.1413C34.5313 30.8469 33.4819 29.7975 32.1875 29.7975C30.8931 29.7975 29.8438 30.8469 29.8438 32.1413C29.8438 34.4285 31.0194 36.622 33.0696 38.1596C34.3696 39.1345 35.9487 39.8059 37.6564 40.1273V40.3444C37.6564 41.6387 38.7058 42.6881 40.0002 42.6881C41.2946 42.6881 42.3439 41.6387 42.3439 40.3444V40.127C44.0516 39.8056 45.6309 39.1342 46.9307 38.1593C48.9808 36.6218 50.1566 34.4282 50.1566 32.1409C50.1566 29.8537 48.9808 27.6604 46.9307 26.1227ZM37.6562 23.5728C35.8421 22.9866 34.5312 21.7634 34.5312 20.4222C34.5312 19.0809 35.8421 17.8579 37.6562 17.2715V23.5728ZM42.3438 35.2918V28.9906C44.1579 29.5768 45.4688 30.8 45.4688 32.1413C45.4688 33.4825 44.1579 34.7054 42.3438 35.2918Z" fill="url(#paint2_linear_3612_46718)"/>
</g>
<defs>
<linearGradient id="paint0_linear_3612_46718" x1="40.0002" y1="72.4994" x2="40.0002" y2="47.3757" gradientUnits="userSpaceOnUse">
<stop stop-color="#C3FFE8"/>
<stop offset="0.9973" stop-color="#F0FFF4"/>
</linearGradient>
<linearGradient id="paint1_linear_3612_46718" x1="40.0005" y1="80.5" x2="40.0005" y2="0.5" gradientUnits="userSpaceOnUse">
<stop stop-color="#0FA0C3"/>
<stop offset="1" stop-color="#49ECE4"/>
</linearGradient>
<linearGradient id="paint2_linear_3612_46718" x1="40" y1="42.6881" x2="40" y2="9.87512" gradientUnits="userSpaceOnUse">
<stop stop-color="#9BFFF9"/>
<stop offset="0.9973" stop-color="#E2FFEA"/>
<stop offset="1" stop-color="#E2FFFF"/>
</linearGradient>
<clipPath id="clip0_3612_46718">
<rect width="80" height="80" fill="white" transform="translate(0 0.5)"/>
</clipPath>
</defs>
</svg>
