<svg width="80" height="81" viewBox="0 0 80 81" fill="none" xmlns="http://www.w3.org/2000/svg">
<g clip-path="url(#clip0_3612_46785)">
<path d="M40 14.7188C25.7842 14.7188 14.2188 26.2842 14.2188 40.5C14.2188 54.7158 25.7842 66.2812 40 66.2812C54.2158 66.2812 65.7812 54.7158 65.7812 40.5C65.7812 26.2842 54.2158 14.7188 40 14.7188Z" fill="url(#paint0_linear_3612_46785)"/>
<path d="M45.4688 34.6406C45.4688 35.935 46.5181 36.9844 47.8125 36.9844C49.1069 36.9844 50.1562 35.935 50.1562 34.6406C50.1562 32.3534 48.9806 30.16 46.9305 28.6223C45.6305 27.6473 44.0514 26.9761 42.3438 26.6547V26.4375C42.3438 25.1431 41.2944 24.0938 40 24.0938C38.7056 24.0938 37.6562 25.1431 37.6562 26.4375V26.6548C35.9486 26.9763 34.3694 27.6475 33.0695 28.6225C31.0194 30.16 29.8438 32.3534 29.8438 34.6406C29.8438 36.9278 31.0194 39.1213 33.0695 40.6589C34.3695 41.6339 35.9486 42.3052 37.6562 42.6266V49.51C35.8422 48.9236 34.5312 47.7006 34.5312 46.3594C34.5312 45.065 33.4819 44.0156 32.1875 44.0156C30.8931 44.0156 29.8438 45.065 29.8438 46.3594C29.8438 48.6466 31.0194 50.84 33.0695 52.3777C34.3695 53.3527 35.9486 54.0239 37.6562 54.3453V54.5625C37.6562 55.8569 38.7056 56.9062 40 56.9062C41.2944 56.9062 42.3438 55.8569 42.3438 54.5625V54.3452C44.0514 54.0238 45.6306 53.3525 46.9305 52.3775C48.9806 50.84 50.1562 48.6466 50.1562 46.3594C50.1562 44.0722 48.9806 41.8787 46.9305 40.3411C45.6305 39.3661 44.0514 38.6948 42.3438 38.3734V31.49C44.1578 32.0764 45.4688 33.2994 45.4688 34.6406ZM37.6562 37.7913C35.8422 37.2048 34.5312 35.9819 34.5312 34.6406C34.5312 33.2994 35.8422 32.0764 37.6562 31.49V37.7913ZM45.4688 46.3594C45.4688 47.7006 44.1578 48.9236 42.3438 49.51V43.2087C44.1578 43.7952 45.4688 45.0181 45.4688 46.3594ZM78.1434 28.6022C77.752 27.3683 76.4345 26.6852 75.2009 27.0764C73.967 27.4675 73.2837 28.785 73.675 30.0189C74.7617 33.4458 75.3125 37.0245 75.3125 40.6562C75.3125 60.0414 59.5414 75.8125 40.1562 75.8125C32.843 75.8125 25.8709 73.5786 20.0445 69.5042C21.108 69.6075 22.14 68.9706 22.4923 67.9139C22.9016 66.6859 22.238 65.3586 21.01 64.9492L11.0662 61.6347C10.2241 61.3536 9.29547 61.5731 8.66781 62.2009C8.04 62.8286 7.82078 63.7572 8.10156 64.5994L11.4161 74.5431C11.7436 75.5253 12.6578 76.1464 13.6394 76.1464C13.885 76.1464 14.135 76.1075 14.3808 76.0256C15.6088 75.6162 16.2723 74.2889 15.8631 73.0609L15.4978 71.9648C22.4516 77.4603 31.0717 80.5 40.1562 80.5C50.7989 80.5 60.8045 76.3555 68.3302 68.83C75.8558 61.3045 80 51.2989 80 40.6562C80 36.5433 79.3753 32.4878 78.1434 28.6022ZM4.6875 40.3438C4.6875 20.9586 20.4586 5.1875 39.8438 5.1875C47.157 5.1875 54.1291 7.42141 59.9555 11.4958C58.892 11.3925 57.86 12.0295 57.5077 13.0861C57.0984 14.3141 57.762 15.6414 58.99 16.0508L68.9337 19.3653C69.1766 19.4464 69.4266 19.4858 69.6745 19.4858C70.2864 19.4858 70.8855 19.2459 71.332 18.7992C71.9598 18.1716 72.1791 17.243 71.8983 16.4008L68.5837 6.45703C68.1744 5.22891 66.8469 4.56531 65.6191 4.97469C64.3911 5.38406 63.7275 6.71141 64.1367 7.93937L64.502 9.03547C57.5484 3.53969 48.9283 0.5 39.8438 0.5C29.2011 0.5 19.1955 4.64453 11.67 12.17C4.14453 19.6955 0 29.7011 0 40.3438C0 44.4567 0.624688 48.5122 1.85656 52.3978C2.17313 53.3961 3.09578 54.0337 4.09016 54.0337C4.32484 54.0337 4.56344 53.9981 4.79906 53.9234C6.03297 53.5323 6.71625 52.2148 6.325 50.9809C5.23828 47.5542 4.6875 43.9755 4.6875 40.3438Z" fill="url(#paint1_linear_3612_46785)"/>
</g>
<defs>
<linearGradient id="paint0_linear_3612_46785" x1="40" y1="66.2812" x2="40" y2="14.7188" gradientUnits="userSpaceOnUse">
<stop stop-color="#48EBE4"/>
<stop offset="1" stop-color="#12A4C5"/>
</linearGradient>
<linearGradient id="paint1_linear_3612_46785" x1="40" y1="80.5" x2="40" y2="0.5" gradientUnits="userSpaceOnUse">
<stop stop-color="#9DFFF9"/>
<stop offset="1" stop-color="#E1FFEB"/>
</linearGradient>
<clipPath id="clip0_3612_46785">
<rect width="80" height="80" fill="white" transform="translate(0 0.5)"/>
</clipPath>
</defs>
</svg>
