<svg version="1.2" xmlns="http://www.w3.org/2000/svg" viewBox="0 0 440 176" width="440" height="176">
	<title>logo-svg-svg</title>
	<defs>
		<linearGradient id="g1" x1="88.7" y1="46" x2="116.9" y2="42.7" gradientUnits="userSpaceOnUse">
			<stop offset="0" stop-color="#843051"/>
			<stop offset="1" stop-color="#9c3369"/>
		</linearGradient>
	</defs>
	<style>
		.s0 { fill: #ec268f } 
		.s1 { fill: url(#g1) } 
	</style>
	<g id="Layer_x0020_1">
		<!-- <path id="Layer" fill-rule="evenodd" class="s0" d="m94 7c1 0 1 0 2 0 0 0 0 0 1 0h1 1c1 0 1 0 1 0h1c1 0 1 0 1 1 23 2 43 13 56 30-8 7-18 11-29 11-16 0-21-8-35-8-26 0-47 21-47 47 0 26 21 48 47 48 13 0 17-10 35-10q18 0 30 12c-13 18-34 29-58 32h-1-1c0 0 0 0-1 0h-1c-1 0-1 0-1 0-1 0-1 0-2 0 0 0-1 0-2 0 0 0-1 0-2 0h-1c-1 0-1 0-1 0-1-1-1-1-1-1-1 0-1 0-1 0h-1c-40-4-72-39-72-81 0-41 32-76 72-80 1 0 1 0 2 0 0-1 0-1 1-1 0 0 0 0 1 0h1c1 0 2 0 2 0 1 0 2 0 2 0z"/> -->
		<!-- <path id="Layer" fill-rule="evenodd" class="s1" d="m103 8c22 2 42 13 55 30-8 7-18 11-29 11-16 0-21-8-35-8-19 0-35 12-43 29l-2 7c-1 2-1 2-2 4 0-23 15-47 26-56 11-10 20-15 30-17z"/> -->
		<path id="Layer" fill-rule="evenodd" class="s0" d="m77 90c0-5 1-9 4-13 3-3 7-5 12-5 3 0 5 1 7 2 2 1 3 2 3 4 0 1 0 1 0 2-1 1-2 1-3 1 0 0-1 0-3-1-1-1-2-1-4-1q-4.5 0-6 3c-2 2-3 5-3 8 0 3 1 6 3 8q1.5 3 6 3c2 0 3-1 4-1 2-1 4-1 4-1 1 0 2 0 2 1 1 1 1 1 1 2 0 2-1 3-4 4-2 1-4 2-7 2-5 0-9-2-12-5-3-4-4-8-4-13zm31 14v-27c0-3 1-4 4-4h8q6 0 9 3c2 1 3 4 3 8 0 2-1 4-2 6-2 1-4 2-7 3l8 8c1 1 1 2 1 3 0 1 0 1-1 2 0 1-1 1-2 1-1 0-1 0-2 0l-1-1-11-13v11c0 1 0 2-1 2 0 1-1 1-2 1-1 0-2 0-3-1 0 0-1-1-1-2zm7-24v8h5c2 0 3 0 4-1 0-1 1-2 1-3 0-2-1-3-1-3-1-1-2-1-4-1zm35 11v13c0 1 0 2-1 2 0 1-1 1-2 1-2 0-2 0-3-1-1 0-1-1-1-2v-13l-10-13c-1 0-1-1-1-2 0-1 0-2 1-2 1-1 2-1 3-1 1 0 2 0 3 1l8 10 7-10c1-1 2-1 4-1 1 0 2 0 2 1 1 0 1 1 1 2 0 1 0 2 0 2zm25-19c2 0 4 1 5 1 3 1 4 3 4 4 0 1 0 2-1 3 0 0-1 1-2 1-1 0-1 0-2-1-2 0-4-1-4-1-2 0-2 1-3 1-1 1-1 1-1 2 0 2 1 3 4 3 4 2 6 3 7 3 3 2 5 5 5 8 0 4-2 6-4 8-2 3-5 4-9 4-2 0-5-1-7-1-3-1-4-3-4-5 0-1 0-2 1-2 0-1 1-1 2-1 1 0 2 0 4 1 1 0 3 1 4 1 1 0 3-1 4-1 0-1 1-2 1-3 0-2-2-3-4-4-5-1-7-2-8-3-3-1-4-4-4-7 0-3 1-6 3-8 3-2 5-3 9-3zm21 32v-24h-5c-1 0-2-1-3-1q0-1.5 0-3c0-1 0-1 1-2 0-1 1-1 2-1h17c1 0 2 0 3 1 0 1 1 1 1 2 0 1-1 2-1 3-1 0-1 1-3 1h-5v24c0 1 0 2-1 2 0 1-1 1-2 1-1 0-2 0-3-1 0 0-1-1-1-2zm18-2l9-26c1-1 1-2 2-2 1-1 2-2 4-2 1 0 2 1 3 2 1 0 1 1 2 2l9 26c0 1 0 1 0 1 0 1 0 1 0 1 0 1 0 2-1 2 0 1-1 1-2 1-1 0-2 0-2 0-1-1-1-1-1-2l-2-5h-13l-2 5c0 1 0 1-1 2 0 0-1 0-2 0-1 0-2 0-3-1 0 0-1-1-1-2v-1c1 0 1-1 1-1zm10-8h9l-4-14zm23 9v-27c0-1 1-2 1-2 1-1 2-1 3-1 1 0 2 0 3 1 0 0 1 1 1 2v24h8c1 0 2 1 3 1q0 1.5 0 3c0 1 0 1 0 2-1 1-2 1-3 1h-12c-1 0-2 0-3-1 0-1-1-2-1-3zm35-13c0-5 1-9 4-13 3-3 7-5 12-5 2 0 5 1 6 2 3 1 4 2 4 4 0 1 0 1-1 2 0 1-1 1-2 1 0 0-1 0-3-1-1-1-3-1-4-1-3 0-5 1-7 3-1 2-2 5-2 8 0 3 1 6 2 8 2 2 4 3 7 3 1 0 3-1 4-1 2-1 4-1 4-1 1 0 1 0 2 1 0 1 1 1 1 2 0 2-2 3-4 4-2 1-4 2-7 2-5 0-9-2-12-5-3-4-4-8-4-13zm31 13v-27c0-1 0-2 1-2 1-1 2-1 3-1 1 0 1 0 2 1 1 0 1 1 1 2v24h9c1 0 2 1 2 1 1 1 1 2 1 3 0 1 0 1-1 2 0 1-1 1-2 1h-12c-1 0-2 0-3-1-1-1-1-2-1-3zm21-1l9-26c1-1 1-2 2-2 1-1 2-2 3-2 2 0 3 1 4 2 0 0 1 1 1 2l10 26c0 1 0 1 0 1 0 1 0 1 0 1 0 1 0 2-1 2 0 1-1 1-2 1-1 0-2 0-2 0-1-1-1-1-2-2l-1-5h-13l-2 5c0 1 0 1-1 2 0 0-1 0-2 0-1 0-2 0-3-1 0 0-1-1-1-2v-1c1 0 1-1 1-1zm10-8h9l-5-14zm23 10v-27c0-3 2-4 4-4h8q6 0 9 3c2 1 3 4 3 8 0 2-1 4-2 6-2 1-4 2-7 3l9 8q0 1.5 0 3c0 1 0 1-1 2 0 1-1 1-2 1-1 0-1 0-2 0 0 0 0-1-1-1l-10-13-1 11c0 1 0 2 0 2-1 1-2 1-3 1-1 0-2 0-3-1 0 0-1-1-1-2zm7-24v8h5c2 0 3 0 4-1 0-1 1-2 1-3 0-2-1-3-1-3-1-1-2-1-4-1zm20 22l9-26c1-1 2-2 2-2 1-1 2-2 4-2 1 0 2 1 3 2 1 0 1 1 2 2l9 26c0 1 0 1 0 1 0 1 0 1 0 1 0 1 0 2-1 2 0 1-1 1-2 1-1 0-2 0-2 0-1-1-1-1-1-2l-2-5h-13l-1 5c-1 1-1 1-2 2 0 0-1 0-2 0-1 0-2 0-2-1-1 0-1-1-1-2zm10-8h9l-4-14z"/>
	</g>
</svg>