<svg width="52" height="53" viewBox="0 0 52 53" fill="none" xmlns="http://www.w3.org/2000/svg">
<g id="Shield">
<rect y="0.5" width="52" height="52" rx="8" fill="#1B68C3"/>
<g id="Group 1171275106">
<path id="Vector" d="M13.1676 25.6401C13.1676 19.0065 18.2269 13.5323 24.6899 12.874V4.83334L8.68652 12.0746V26.2683C8.68652 29.1736 9.58941 32.1709 11.3697 35.1768C12.7576 37.5198 14.6827 39.877 17.0912 42.1837C20.2508 45.2091 23.3771 47.3276 24.6899 48.1667V38.4062C18.2269 37.7476 13.1676 32.2737 13.1676 25.6401Z" fill="white"/>
<path id="Vector_2" d="M27.3096 4.83334V12.874C33.7723 13.5323 38.8319 19.0065 38.8319 25.6401C38.8319 32.2737 33.7723 37.7476 27.3096 38.4062V48.1667C28.6224 47.3276 31.7486 45.2091 34.9082 42.1837C37.3167 39.8774 39.2415 37.5198 40.6294 35.1768C42.4101 32.1709 43.3129 29.1736 43.3129 26.2686V12.0746L27.3096 4.83334Z" fill="white"/>
<path id="Vector_3" d="M36.2123 25.64C36.2123 20.0088 31.6314 15.4279 26.0002 15.4279C20.3693 15.4279 15.7881 20.0088 15.7881 25.64C15.7881 31.2709 20.3693 35.8518 26.0002 35.8518C31.6314 35.8518 36.2123 31.2709 36.2123 25.64ZM25.2061 30.8306L20.8679 27.4415L22.4872 25.3683L24.7789 27.1585L30.0908 20.5368L32.1429 22.1829L25.2061 30.8306Z" fill="white"/>
</g>
</g>
</svg>
