<svg width="52" height="53" viewBox="0 0 52 53" fill="none" xmlns="http://www.w3.org/2000/svg">
<g id="Chart">
<rect y="0.5" width="52" height="52" rx="8" fill="#FD6401"/>
<g id="Group">
<path id="Vector" d="M23.5067 29.6033H21.7864V27.8827C21.7864 27.2254 21.2535 26.6924 20.5961 26.6924C19.9387 26.6924 19.4058 27.2254 19.4058 27.8827V29.6033H17.6854C17.0281 29.6033 16.4951 30.1362 16.4951 30.7936V36.6146C16.4951 37.272 17.0281 37.8049 17.6854 37.8049H19.4058V39.6224C19.4058 40.2798 19.9387 40.8127 20.5961 40.8127C21.2535 40.8127 21.7864 40.2798 21.7864 39.6224V37.8049H23.5067C24.1641 37.8049 24.697 37.272 24.697 36.6146V30.7936C24.697 30.1362 24.1641 29.6033 23.5067 29.6033Z" fill="white"/>
<path id="Vector_2" d="M34.3143 23.7816H32.594V22.0612C32.594 21.4038 32.0611 20.8709 31.4037 20.8709C30.7463 20.8709 30.2134 21.4038 30.2134 22.0612V23.7816H28.493C27.8357 23.7816 27.3027 24.3146 27.3027 24.9719V30.793C27.3027 31.4503 27.8357 31.9833 28.493 31.9833H30.2134V39.6225C30.2134 40.2798 30.7463 40.8128 31.4037 40.8128C32.0611 40.8128 32.594 40.2798 32.594 39.6225V31.9833H34.3143C34.9717 31.9833 35.5046 31.4503 35.5046 30.793V24.9719C35.5046 24.3146 34.9717 23.7816 34.3143 23.7816Z" fill="white"/>
<path id="Vector_3" d="M45.1219 15.0981H43.4015V13.3776C43.4015 12.7202 42.8686 12.1873 42.2112 12.1873C41.5539 12.1873 41.021 12.7202 41.021 13.3776V15.098H39.3007C38.6433 15.098 38.1104 15.631 38.1104 16.2883V24.9719C38.1104 25.6292 38.6433 26.1622 39.3007 26.1622H41.021V30.8899C41.021 31.5472 41.5539 32.0802 42.2112 32.0802C42.8686 32.0802 43.4015 31.5472 43.4015 30.8899V26.1622H45.1219C45.7793 26.1622 46.3122 25.6292 46.3122 24.9719V16.2884C46.3122 15.631 45.7793 15.0981 45.1219 15.0981Z" fill="white"/>
<path id="Vector_4" d="M12.699 20.7742H10.9788V13.3776C10.9788 12.7203 10.4458 12.1873 9.78848 12.1873C9.13112 12.1873 8.59818 12.7203 8.59818 13.3776V20.7742H6.8778C6.22044 20.7742 5.6875 21.3071 5.6875 21.9645V30.89C5.6875 31.5473 6.22044 32.0803 6.8778 32.0803H8.59818V33.8007C8.59818 34.4581 9.13112 34.991 9.78848 34.991C10.4458 34.991 10.9788 34.4581 10.9788 33.8007V32.0803H12.6991C13.3564 32.0803 13.8894 31.5473 13.8894 30.89V21.9645C13.8893 21.3071 13.3564 20.7742 12.699 20.7742Z" fill="white"/>
</g>
</g>
</svg>
